<?xml version="1.0" standalone="no"?><!DOCTYPE svg PUBLIC "-//W3C//DTD SVG 1.1//EN" "http://www.w3.org/Graphics/SVG/1.1/DTD/svg11.dtd"><svg t="1531708839423" class="icon" style="" viewBox="0 0 1024 1024" version="1.1" xmlns="http://www.w3.org/2000/svg" p-id="3596" xmlns:xlink="http://www.w3.org/1999/xlink" width="32" height="32"><defs><style type="text/css"></style></defs><path d="M906.547408 44.018881c3.679145-3.679145 5.33476-8.911706 4.435414-14.02163s-4.210577-9.484018-8.952586-11.691505c-73.174104-34.502203-160.001923-19.35639-217.110427 38.03827-54.226507 54.573982-73.174104 140.298058-47.869763 211.959624l-368.527678 368.527678c-20.0309-7.153893-41.431259-10.730839-63.751405-10.730839-54.7375 0-107.819384 21.788714-145.591939 59.786104-56.904107 57.231142-72.949267 141.810595-40.920267 215.475251 2.105288 4.864647 6.479383 8.359835 11.691505 9.3205 5.232562 0.981105 10.567322-0.67451 14.266906-4.435414l111.498529-112.070841c7.33785-7.419609 19.192872-8.400714 25.324781-2.166608l48.135479 50.363405c6.990375 7.051694 6.68378 17.946051-0.69495 25.3861l-111.069296 111.784685c-3.679145 3.679145-5.293881 8.911706-4.414974 14.02163s4.210577 9.443139 8.911706 11.650625c26.469403 12.488653 54.328706 18.784079 82.73988 18.784079 50.199888 0 97.885693-20.194417 134.350107-56.842788 54.226507-54.553543 73.174104-140.257178 47.849323-211.939184l368.527678-368.548118c20.05134 7.153893 41.451699 10.730839 63.771844 10.730839 54.7375 0 107.819384-21.788714 145.591939-59.786104 56.904107-57.231142 72.949267-141.810595 40.920267-215.475251-2.105288-4.864647-6.479383-8.359835-11.691505-9.3205-5.150803-0.899347-10.546882 0.67451-14.266906 4.435414l-111.498529 112.070841c-6.867737 6.908616-18.518363 6.826858-25.590497-0.327035l-47.869763-47.869763c-7.215212-7.256091-7.194772-18.130008-0.040879-25.36566l111.805125-111.743806zM772.156422 203.693769l47.869763 47.869763c19.131553 19.233752 51.896382 19.315511 70.843979 0.286156l93.572918-94.022591c14.982296 55.595967-0.510992 115.259433-42.289726 157.324323-31.845043 32.029-76.607972 50.363405-122.965198 50.363405-21.809153 0-42.473684-4.087939-61.42128-12.141178-6.00927-2.595841-12.938326-1.185502-17.537257 3.392989l-383.244258 383.244258c-4.598931 4.598931-5.947951 11.507548-3.413429 17.475938 25.651816 60.992046 10.03589 139.725746-37.138924 187.186715-42.187528 42.412365-103.608808 57.517298-159.204775 40.184438l93.920393-94.533584c19.826503-19.969581 20.153538-50.915277 0.919786-70.189908l-48.094599-50.363405c-18.559242-18.68188-51.548908-17.537257-70.843979 1.98265l-93.572918 94.022591c-14.982296-55.595967 0.510992-115.259433 42.289726-157.324323 31.845043-32.029 76.607972-50.363405 122.965198-50.363405 21.809153 0 42.473684 4.087939 61.42128 12.141178 5.968391 2.616281 12.938326 1.185502 17.537257-3.392989l383.244258-383.244258c4.598931-4.598931 5.947951-11.487108 3.413429-17.475938-25.651816-60.992046-10.03589-139.766626 37.138924-187.207155 42.167088-42.412365 103.547488-57.4151 159.102576-40.184438l-94.533584 94.574463c-19.683425 19.703865-19.683425 50.629121 0 70.414745zM933.895719 979.543664c-7.051694 7.092574-19.295071 7.092574-26.408084-0.061319l-320.33088-319.370215c-6.234107-6.172788-16.351755-6.193227-22.585862 0.061319-6.234107 6.234107-6.193227 16.351755 0.040879 22.585862l320.290001 319.308896c9.586216 9.606656 22.299706 14.920976 35.830783 14.920976 0 0 0 0 0 0 13.551517 0 26.244567-5.293881 36.03518-15.145813l45.641836-47.685805c19.642546-19.744744 19.642546-50.69044-0.040879-70.455624l-319.370215-319.370215c-6.234107-6.234107-16.351755-6.234107-22.585862 0s-6.234107 16.351755 0 22.585862l319.329335 319.329335c7.31741 7.33785 7.31741 18.00737-0.224837 25.610936l-45.641836 47.685805zM187.969535 101.250024l-95.800845-95.821284c-6.234107-6.234107-16.351755-6.234107-22.585862 0l-63.874043 63.874043c-6.234107 6.234107-6.234107 16.351755 0 22.585862l95.821284 95.821284c3.106833 3.127273 7.194772 4.70113 11.282711 4.70113s8.175877-1.573856 11.303151-4.66025l20.623651-20.66453 244.193021 244.193021c3.127273 3.127273 7.215212 4.70113 11.303151 4.70113s8.175877-1.573856 11.303151-4.66025c6.234107-6.234107 6.234107-16.351755 0-22.585862l-244.213461-244.213461 20.623651-20.623651c6.254546-6.254546 6.254546-16.351755 0.040879-22.606301zM112.792342 153.841356l-73.235423-73.235423 41.288181-41.288181 73.235423 73.235423-41.288181 41.288181z" p-id="3597" fill="#1296db"></path></svg>