<?xml version="1.0" standalone="no"?><!DOCTYPE svg PUBLIC "-//W3C//DTD SVG 1.1//EN" "http://www.w3.org/Graphics/SVG/1.1/DTD/svg11.dtd"><svg t="1531708644187" class="icon" style="" viewBox="0 0 1025 1024" version="1.1" xmlns="http://www.w3.org/2000/svg" p-id="3097" xmlns:xlink="http://www.w3.org/1999/xlink" width="32.03125" height="32"><defs><style type="text/css"></style></defs><path d="M896 748.8c-25.6 0-51.2 6.4-70.4 19.2l-128-128c25.6-38.4 38.4-83.2 38.4-134.4 0-44.8-12.8-89.6-38.4-128l128-128c19.2 12.8 44.8 19.2 64 19.2 76.8 0 134.4-64 134.4-134.4C1030.4 64 966.4 0 896 0c-76.8 0-134.4 64-134.4 134.4 0 25.6 6.4 51.2 19.2 70.4l-121.6 121.6C614.4 294.4 550.4 275.2 492.8 275.2c-51.2 0-96 12.8-134.4 38.4L249.6 204.8c12.8-19.2 19.2-44.8 19.2-70.4C275.2 64 211.2 0 134.4 0 64 0 0 64 0 134.4c0 76.8 64 134.4 134.4 134.4 25.6 0 44.8-6.4 64-19.2l102.4 102.4C275.2 403.2 249.6 454.4 249.6 512s25.6 115.2 57.6 153.6L204.8 768c-19.2-12.8-44.8-19.2-70.4-19.2-76.8 0-134.4 64-134.4 134.4C0 960 64 1024 134.4 1024c76.8 0 134.4-64 134.4-134.4 0-25.6-6.4-44.8-19.2-64l108.8-108.8c38.4 25.6 83.2 38.4 128 38.4 57.6 0 108.8-19.2 153.6-57.6l128 128c-12.8 19.2-19.2 44.8-19.2 64 0 76.8 64 134.4 134.4 134.4 76.8 0 134.4-64 134.4-134.4C1030.4 812.8 966.4 748.8 896 748.8L896 748.8 896 748.8z" p-id="3098" fill="#e24f3c"></path></svg>