<?xml version="1.0" encoding="UTF-8"?>
<svg width="108px" height="108px" viewBox="0 0 108 108" version="1.1" xmlns="http://www.w3.org/2000/svg" xmlns:xlink="http://www.w3.org/1999/xlink">
    <!-- Generator: Sketch 48.1 (47250) - http://www.bohemiancoding.com/sketch -->
    <title>clay</title>
    <desc>Created with Sketch.</desc>
    <defs>
        <linearGradient x1="17.6016566%" y1="0%" x2="85.2033133%" y2="100%" id="linearGradient-1">
            <stop stop-color="#93CFEF" offset="0%"></stop>
            <stop stop-color="#5450FF" offset="100%"></stop>
        </linearGradient>
    </defs>
    <g id="Artboard-3" stroke="none" stroke-width="1" fill="none" fill-rule="evenodd" transform="translate(-536.000000, -253.000000)">
        <path d="M611.037231,325.444398 L611.037231,322.880138 L607.060834,325.074171 L607.060834,314.240618 L604.564701,315.617895 L604.564701,329.339103 L610.935644,325.823845 L613.63495,324.334465 L614.389595,321.224226 L618.365993,319.030193 L619.164174,321.283638 L621.92153,319.762228 L617.654885,308.395201 L615.245827,309.724433 L611.037231,325.444398 Z M624.860755,275.392241 C624.117277,275.603319 623.385647,275.90058 622.679018,276.287878 L590.185042,294.097592 C586.824605,295.939423 584.73494,299.470622 584.73494,303.30739 L584.73494,347.181113 C584.73494,348.942567 585.177435,350.675709 586.021676,352.220931 C586.888332,353.80718 588.104201,355.080316 589.521212,355.996941 C588.597264,355.936926 587.68383,355.673228 586.850421,355.206259 L550.220495,334.682087 C548.231644,333.56771 547,331.465802 547,329.186029 L547,284.036205 C547,281.703489 548.288968,279.561708 550.350175,278.46947 L587.590274,258.73586 C589.436921,257.757317 591.648636,257.758223 593.49448,258.738277 L624.860755,275.392241 Z M592.199715,297.780446 L624.672005,279.982619 C627.723159,278.310303 631.552288,279.428072 633.224604,282.479227 C633.733327,283.407397 634,284.44878 634,285.507222 L634,329.373739 C634,331.674602 632.745671,333.792469 630.727995,334.898343 L598.255706,352.69617 C595.204552,354.368486 591.375423,353.250716 589.703107,350.199562 C589.194384,349.271392 588.927711,348.230009 588.927711,347.171567 L588.927711,303.30505 C588.927711,301.004187 590.18204,298.886319 592.199715,297.780446 Z M603.505296,328.024381 L601.778321,326.806678 C601.555796,327.342906 601.260714,327.841643 600.893064,328.302903 C600.525415,328.764163 600.094885,329.130914 599.601461,329.403168 C599.175762,329.638053 598.783931,329.750891 598.425956,329.741685 C598.067982,329.732479 597.760806,329.614497 597.504419,329.387736 C597.248032,329.160974 597.047279,328.829232 596.902155,328.392497 C596.75703,327.955763 596.684469,327.427318 596.684469,326.807148 C596.684469,326.199897 596.75703,325.601069 596.902155,325.010646 C597.047279,324.420222 597.250451,323.865609 597.511675,323.346788 C597.7729,322.827967 598.084913,322.361879 598.447725,321.948508 C598.810537,321.535138 599.209624,321.208346 599.644998,320.968122 C600.041672,320.749252 600.428666,320.639083 600.80599,320.637613 C601.183314,320.636142 601.488071,320.784529 601.720271,321.082777 L603.403709,317.905808 C602.968335,317.487101 602.399939,317.300071 601.698502,317.344712 C600.997066,317.389353 600.283547,317.611857 599.557924,318.01223 C598.77425,318.444633 598.0438,319.015629 597.366551,319.725237 C596.689303,320.434844 596.099138,321.241747 595.596039,322.14597 C595.09294,323.050192 594.69869,324.026777 594.413278,325.075752 C594.127866,326.124728 593.985162,327.198309 593.985162,328.296528 C593.985162,329.368906 594.125448,330.273424 594.406022,331.010109 C594.686596,331.746793 595.07359,332.298776 595.567014,332.666073 C596.060438,333.033371 596.643347,333.205934 597.315758,333.183767 C597.988169,333.161601 598.721038,332.931651 599.514386,332.49391 C600.385135,332.013462 601.154284,331.385583 601.821858,330.610252 C602.489431,329.834922 603.050572,328.972974 603.505296,328.024381 Z M626.899283,311.201612 L630.846656,301.116456 L627.944176,302.71794 L625.752804,309.004683 L623.561431,305.136181 L620.557365,306.793717 L624.417663,312.570881 L624.417663,318.384952 L626.899283,317.015683 L626.899283,311.201612 Z M616.406819,312.746705 L617.68391,316.751449 L615.100703,318.17677 L616.406819,312.746705 Z" id="Combined-Shape" fill="url(#linearGradient-1)"></path>
    </g>
</svg>