<?xml version="1.0" standalone="no"?><!DOCTYPE svg PUBLIC "-//W3C//DTD SVG 1.1//EN" "http://www.w3.org/Graphics/SVG/1.1/DTD/svg11.dtd"><svg t="1531708979375" class="icon" style="" viewBox="0 0 1024 1024" version="1.1" xmlns="http://www.w3.org/2000/svg" p-id="4728" xmlns:xlink="http://www.w3.org/1999/xlink" width="32" height="32"><defs><style type="text/css"></style></defs><path d="M911.94624 217.194496q15.998976 15.998976 27.426816 43.425792t11.42784 50.282496l0 658.243584q0 22.85568-15.998976 38.854656t-38.854656 15.998976l-767.950848 0q-22.85568 0-38.854656-15.998976t-15.998976-38.854656l0-914.2272q0-22.85568 15.998976-38.854656t38.854656-15.998976l511.967232 0q22.85568 0 50.282496 11.42784t43.425792 27.426816zm-253.698048-139.419648l0 214.843392 214.843392 0q-5.71392-16.570368-12.570624-23.427072l-178.845696-178.845696q-6.856704-6.856704-23.427072-12.570624zm219.414528 873.086976l0-585.105408-237.699072 0q-22.85568 0-38.854656-15.998976t-15.998976-38.854656l0-237.699072-438.829056 0 0 877.658112 731.38176 0z" p-id="4729" fill="#e24f3c"></path></svg>