<?xml version="1.0" encoding="UTF-8"?>
<svg width="108px" height="108px" viewBox="0 0 108 108" version="1.1" xmlns="http://www.w3.org/2000/svg" xmlns:xlink="http://www.w3.org/1999/xlink">
    <!-- Generator: Sketch 48.1 (47250) - http://www.bohemiancoding.com/sketch -->
    <title>ec</title>
    <desc>Created with Sketch.</desc>
    <defs>
        <linearGradient x1="100%" y1="100%" x2="0%" y2="0%" id="linearGradient-1">
            <stop stop-color="#FF9075" offset="0%"></stop>
            <stop stop-color="#EA5C7A" offset="100%"></stop>
        </linearGradient>
    </defs>
    <g id="Artboard-3" stroke="none" stroke-width="1" fill="none" fill-rule="evenodd" transform="translate(-398.000000, -253.000000)">
        <path d="M486.860755,275.392241 C486.117277,275.603319 485.385647,275.90058 484.679018,276.287878 L452.185042,294.097592 C448.824605,295.939423 446.73494,299.470622 446.73494,303.30739 L446.73494,347.181113 C446.73494,348.942567 447.177435,350.675709 448.021676,352.220931 C448.888332,353.80718 450.104201,355.080316 451.521212,355.996941 C450.597264,355.936926 449.68383,355.673228 448.850421,355.206259 L412.220495,334.682087 C410.231644,333.56771 409,331.465802 409,329.186029 L409,284.036205 C409,281.703489 410.288968,279.561708 412.350175,278.46947 L449.590274,258.73586 C451.436921,257.757317 453.648636,257.758223 455.49448,258.738277 L486.860755,275.392241 Z M454.199715,297.780446 L486.672005,279.982619 C489.723159,278.310303 493.552288,279.428072 495.224604,282.479227 C495.733327,283.407397 496,284.44878 496,285.507222 L496,329.373739 C496,331.674602 494.745671,333.792469 492.727995,334.898343 L460.255706,352.69617 C457.204552,354.368486 453.375423,353.250716 451.703107,350.199562 C451.194384,349.271392 450.927711,348.230009 450.927711,347.171567 L450.927711,303.30505 C450.927711,301.004187 452.18204,298.886319 454.199715,297.780446 Z M481.9032,317.488601 C481.9032,316.828657 482.095465,316.118818 482.412609,315.48234 C482.967132,313.41794 483.272288,311.330689 483.272288,309.322629 C483.272288,298.596051 477.908875,297.065368 471.29277,300.748591 C464.676666,304.431813 459.313253,314.242224 459.313253,322.664375 C459.314789,333.966373 466.516498,337.377911 475.400034,332.432398 C479.75112,330.010123 483.698742,325.614418 486.594498,320.431295 C486.865173,319.946814 487.119007,319.454712 487.347078,318.971781 C487.801662,318.009217 490.614778,317.732319 491.58296,319.94242 C492.131913,317.913786 491.842003,313.752463 488.780295,315.456933 C488.780295,311.511834 486.005842,313.093867 484.598892,314.265224 C485.171651,314.394109 486.005842,314.487025 486.005842,315.381348 C485.93443,316.781874 485.044349,318.353009 483.956832,318.958436 C482.822643,319.589846 481.9032,318.931778 481.9032,317.488601 Z" id="Combined-Shape-Copy" fill="url(#linearGradient-1)"></path>
    </g>
</svg>