<?xml version="1.0" encoding="UTF-8"?>
<svg width="108px" height="108px" viewBox="0 0 108 108" version="1.1" xmlns="http://www.w3.org/2000/svg" xmlns:xlink="http://www.w3.org/1999/xlink">
    <!-- Generator: Sketch 48.1 (47250) - http://www.bohemiancoding.com/sketch -->
    <title>gallery</title>
    <desc>Created with Sketch.</desc>
    <defs>
        <linearGradient x1="94.2335841%" y1="100%" x2="0%" y2="0%" id="linearGradient-1">
            <stop stop-color="#47C9E5" offset="0%"></stop>
            <stop stop-color="#C7E031" offset="100%"></stop>
        </linearGradient>
    </defs>
    <g id="Artboard-3" stroke="none" stroke-width="1" fill="none" fill-rule="evenodd" transform="translate(-260.000000, -253.000000)">
        <path d="M353.685393,281.877835 C357.904081,283.051085 361,286.920576 361,291.513158 L361,337 C361,342.522847 356.522847,347 351,347 L290.539326,347 C285.96065,347 282.100693,343.922801 280.914734,339.723684 L341.146067,339.723684 C348.071346,339.723684 353.685393,334.139026 353.685393,327.25 L353.685393,281.877835 Z M274,268 L341.41573,268 C344.729439,268 347.41573,270.686292 347.41573,274 L347.41573,327.486842 C347.41573,330.800551 344.729439,333.486842 341.41573,333.486842 L274,333.486842 C270.686292,333.486842 268,330.800551 268,327.486842 L268,274 C268,270.686292 270.686292,268 274,268 Z M283.494382,308.539474 C281.285243,308.539474 279.494382,310.330335 279.494382,312.539474 L279.494382,329.328947 L294.123596,329.328947 L294.123596,312.539474 C294.123596,310.330335 292.332735,308.539474 290.123596,308.539474 L283.494382,308.539474 Z M304.393258,287.75 C302.184119,287.75 300.393258,289.540861 300.393258,291.75 L300.393258,329.328947 L315.022472,329.328947 L315.022472,291.75 C315.022472,289.540861 313.231611,287.75 311.022472,287.75 L304.393258,287.75 Z M325.292135,298.144737 C323.082996,298.144737 321.292135,299.935598 321.292135,302.144737 L321.292135,329.328947 L335.921348,329.328947 L335.921348,302.144737 C335.921348,299.935598 334.130487,298.144737 331.921348,298.144737 L325.292135,298.144737 Z" id="Combined-Shape" fill="url(#linearGradient-1)"></path>
    </g>
</svg>