<?xml version="1.0" encoding="UTF-8" standalone="no"?>
<svg width="18px" height="18px" viewBox="0 0 18 18" version="1.1" xmlns="http://www.w3.org/2000/svg" xmlns:xlink="http://www.w3.org/1999/xlink">
    <!-- Generator: Sketch 47.1 (45422) - http://www.bohemiancoding.com/sketch -->
    <title>github (2)</title>
    <desc>Created with Sketch.</desc>
    <defs></defs>
    <g id="Page-1" stroke="none" stroke-width="1" fill="none" fill-rule="evenodd">
        <g id="Desktop" transform="translate(-1182.000000, -43.000000)" fill-rule="nonzero" fill="#FFFFFF">
            <g id="黑导航" transform="translate(159.000000, 34.000000)">
                <g id="github-(2)" transform="translate(1023.000000, 9.000000)">
                    <path d="M18,9.22523185 C18,11.2353074 17.4275954,13.0429403 16.2827862,14.6481306 C15.137977,16.2533209 13.6597234,17.3644489 11.8480254,17.9815144 C11.6370605,18.0214904 11.4825863,17.9933022 11.3846026,17.8969497 C11.2866189,17.8005973 11.2376271,17.6806693 11.2376271,17.5371657 L11.2376271,15.003302 C11.2376271,14.2263325 11.0346609,13.6579557 10.6287286,13.2981717 C11.0736544,13.2499955 11.4740877,13.1777311 11.8300284,13.0813787 C12.185969,12.9850263 12.5529079,12.8287099 12.9308449,12.6124294 C13.3087819,12.396149 13.6252291,12.1296423 13.8801867,11.8129093 C14.1351442,11.4961764 14.3421097,11.0759158 14.5010832,10.5521277 C14.6600567,10.0283395 14.7400433,9.42562436 14.7410432,8.74398222 C14.7410432,7.77533288 14.4325946,6.95069966 13.8156974,6.27008256 C14.1046493,5.54128925 14.0736544,4.72434373 13.7227129,3.81924598 C13.5037494,3.74749418 13.1873021,3.79157029 12.7733711,3.95147431 C12.3594401,4.11137834 12,4.28768277 11.6950509,4.48038761 L11.2496251,4.76790733 C10.5227462,4.5598271 9.77287122,4.45578698 9.00000003,4.45578698 C8.22712884,4.45578698 7.47725382,4.5598271 6.75037497,4.76790733 C6.6253958,4.67975511 6.45942346,4.57161489 6.25245795,4.44348667 C6.04549244,4.31535845 5.71954676,4.16109208 5.27462092,3.98068754 C4.82969509,3.80028301 4.49375108,3.74646915 4.2667889,3.81924598 C3.92284622,4.72434373 3.89535081,5.54128925 4.18430265,6.27008256 C3.56740547,6.95069966 3.25895688,7.77533288 3.25895688,8.74398222 C3.25895688,9.42459932 3.33894354,10.0252644 3.49891688,10.5459775 C3.65889021,11.0666906 3.86385605,11.4869512 4.11381439,11.8067592 C4.36377272,12.1265672 4.67822031,12.3946115 5.05715716,12.6108919 C5.436094,12.8271723 5.80303284,12.9834888 6.15797368,13.0798412 C6.51291452,13.1761936 6.91334778,13.2484579 7.35927347,13.2966341 C7.04732546,13.5846664 6.85585738,13.9972392 6.78486921,14.5343527 C6.62089653,14.6143047 6.44492586,14.6742687 6.25695719,14.7142447 C6.06898852,14.7542207 5.8465256,14.7742087 5.58956843,14.7742087 C5.33261126,14.7742087 5.07665392,14.6881066 4.82169641,14.5159022 C4.5667389,14.3436979 4.34977506,14.0935916 4.1708049,13.7655834 C4.02282956,13.509327 3.83336113,13.3012467 3.60239963,13.1413427 C3.37143812,12.9814387 3.17797037,12.8855988 3.02199636,12.853823 L2.78803535,12.8184596 C2.62406267,12.8184596 2.51058158,12.8363975 2.44759208,12.8722734 C2.38460258,12.9081493 2.36510583,12.9542755 2.38910184,13.0106519 C2.41309785,13.0670283 2.44809201,13.1228922 2.49408434,13.1782436 C2.54007667,13.233595 2.59106817,13.2817712 2.64705884,13.3227723 L2.72954509,13.3827363 C2.90151642,13.4626883 3.07148808,13.6149046 3.23946009,13.8393852 C3.40743209,14.0638659 3.5304116,14.267846 3.6083986,14.4513256 L3.72537911,14.7280826 C3.8273621,15.0325152 3.99933344,15.2785214 4.24129312,15.4661011 C4.4832528,15.6536808 4.74470922,15.7736088 5.02566238,15.8258851 C5.30661555,15.8781615 5.5780703,15.9063497 5.84002664,15.9104498 C6.10198299,15.9145499 6.31894683,15.900712 6.49091816,15.8689362 L6.76087316,15.8212725 C6.76087316,16.1257052 6.76287282,16.4819016 6.76687215,16.8898619 C6.77087148,17.2978221 6.77287114,17.5141026 6.77287114,17.5387032 C6.77287114,17.6832318 6.72187964,17.8031598 6.61989665,17.8984872 C6.51791365,17.9938146 6.36193965,18.0220028 6.15197465,17.9830519 C4.3402766,17.3659864 2.86202298,16.2548584 1.71721378,14.6496681 C0.57240458,13.0444778 -1.36695969e-08,11.2368449 0,9.22676935 C0,7.55290229 0.402432926,6.00921349 1.20729878,4.59570298 C2.01216463,3.18219246 3.10398266,2.06286433 4.48275286,1.2377186 C5.86152306,0.412572867 7.36727209,2.98726889e-16 8.99999997,0 C10.6327278,-2.98726889e-16 12.1384769,0.412572867 13.5172471,1.2377186 C14.8960173,2.06286433 15.9878353,3.18219246 16.7927012,4.59570298 C17.597567,6.00921349 17.9999999,7.55290229 17.9999999,9.22676935 L18,9.22523185 Z" id="Shape"></path>
                </g>
            </g>
        </g>
    </g>
</svg>