<?xml version="1.0" encoding="UTF-8"?>
<svg width="108px" height="108px" viewBox="0 0 108 108" version="1.1" xmlns="http://www.w3.org/2000/svg" xmlns:xlink="http://www.w3.org/1999/xlink">
    <!-- Generator: Sketch 48.1 (47250) - http://www.bohemiancoding.com/sketch -->
    <title>map</title>
    <desc>Created with Sketch.</desc>
    <defs>
        <linearGradient x1="88.6209239%" y1="100%" x2="0%" y2="0%" id="linearGradient-1">
            <stop stop-color="#1677DC" offset="0%"></stop>
            <stop stop-color="#73C8FB" offset="100%"></stop>
        </linearGradient>
    </defs>
    <g id="Artboard-3" stroke="none" stroke-width="1" fill="none" fill-rule="evenodd" transform="translate(-1226.000000, -253.000000)">
        <path d="M1242.44091,265.948019 L1263.81526,274.201742 C1264.97282,274.648733 1266.2653,274.586171 1267.37427,274.029471 L1290.40413,262.468579 C1291.46496,261.936047 1292.69594,261.854712 1293.81762,262.24304 L1321.30861,271.760535 C1322.91955,272.318249 1324,273.835671 1324,275.540421 L1324,345.576552 C1324,347.785691 1322.20914,349.576552 1320,349.576552 C1319.55458,349.576552 1319.11229,349.502157 1318.69139,349.356437 L1293.8261,340.747973 C1292.69943,340.357916 1291.46271,340.44178 1290.39901,340.980369 L1267.59978,352.524469 C1266.49162,353.085573 1265.19792,353.15215 1264.03802,352.707769 L1239.56896,343.333219 C1238.02163,342.740411 1237,341.254961 1237,339.597967 L1237,269.679478 C1237,267.470339 1238.79086,265.679478 1241,265.679478 C1241.49274,265.679478 1241.98124,265.77052 1242.44091,265.948019 Z M1267.83544,278.220614 L1267.83544,347.877315 L1292.06329,335.715034 L1292.06329,266.058333 L1267.83544,278.220614 Z" id="Combined-Shape" fill="url(#linearGradient-1)"></path>
    </g>
</svg>