<?xml version="1.0" encoding="UTF-8"?>
<svg width="108px" height="108px" viewBox="0 0 108 108" version="1.1" xmlns="http://www.w3.org/2000/svg" xmlns:xlink="http://www.w3.org/1999/xlink">
    <!-- Generator: Sketch 48.1 (47250) - http://www.bohemiancoding.com/sketch -->
    <title>product5</title>
    <desc>Created with Sketch.</desc>
    <defs>
        <linearGradient x1="100%" y1="100%" x2="0%" y2="0%" id="linearGradient-1">
            <stop stop-color="#FF9075" offset="0%"></stop>
            <stop stop-color="#EA5C7A" offset="100%"></stop>
        </linearGradient>
    </defs>
    <g id="Artboard-3" stroke="none" stroke-width="1" fill="none" fill-rule="evenodd" transform="translate(-1502.000000, -253.000000)">
        <g id="product5" transform="translate(1510.000000, 261.000000)" fill="url(#linearGradient-1)" fill-rule="nonzero">
            <path d="M46.001526,0 C71.403453,0 92.0002774,20.5917763 92,46.0022197 C92,47.7363516 91.8873566,49.4394079 91.70008,51.1274814 C89.7091211,69.062845 77.4037968,83.8545743 60.847154,89.5072894 C56.1843816,91.0924247 51.2011579,92 46.001526,92 C20.596547,92 0,71.4062815 0,46.0019422 C0,20.5917763 20.596547,0 46.001526,0 Z M76.6803056,56.9929296 C75.9835314,56.7346517 75.2701864,56.6267907 74.5704241,56.6599787 C74.6926651,56.114517 74.7285225,55.5669144 74.6798978,55.0313558 C74.5008824,53.0890523 73.2274017,51.3241979 71.2579614,50.5833551 C69.2320187,49.8285947 67.0341236,50.3660268 65.5946666,51.7789276 C66.1626803,51.7845481 66.7440046,51.891071 67.3057705,52.1019756 C69.8845147,53.0636259 71.1808139,55.9049507 70.2083179,58.4473154 C69.8459408,59.3856804 69.2271291,60.1471319 68.4616282,60.6944669 C67.1444124,61.6293527 65.3950062,61.9162687 63.7659395,61.3060369 C61.1863805,60.3465277 59.8908963,57.5052031 60.8669238,54.9623033 C60.9916096,54.6306904 61.1535113,54.3228981 61.3425775,54.0303615 L61.3395893,54.0303615 C62.173002,52.7536925 62.8844454,51.3680917 63.4535456,49.8912238 C67.8634616,38.4127111 61.9956167,25.5804474 50.3416923,21.2322786 C38.687768,16.8835744 25.666373,22.6652527 21.2540121,34.1445683 C20.04627,37.2762883 19.6097334,40.5099812 19.8471528,43.6435749 C19.8528573,43.746886 19.8629082,43.852606 19.8724159,43.9588612 C20.8123142,54.6154346 27.7822308,64.3298958 38.6141517,68.3665253 C49.630249,72.4751514 61.5884179,69.5851153 69.4574859,61.9352715 C70.8015947,60.6495025 72.8326988,60.1725581 74.6972831,60.8697748 C76.9440747,61.7075052 78.2134809,63.9658979 77.8663161,66.2146555 C78.7062483,65.6311883 79.3875387,64.8014872 79.7811552,63.7788136 C80.8267241,61.0614088 79.4353486,58.0217589 76.6803056,56.9929296 Z" id="Combined-Shape"></path>
        </g>
    </g>
</svg>