<?xml version="1.0" encoding="UTF-8"?>
<svg width="108px" height="108px" viewBox="0 0 108 108" version="1.1" xmlns="http://www.w3.org/2000/svg" xmlns:xlink="http://www.w3.org/1999/xlink">
    <!-- Generator: Sketch 48.1 (47250) - http://www.bohemiancoding.com/sketch -->
    <title>product2</title>
    <desc>Created with Sketch.</desc>
    <defs>
        <linearGradient x1="0%" y1="10.2883212%" x2="101.999998%" y2="90.5059115%" id="linearGradient-1">
            <stop stop-color="#0DA7F0" offset="0%"></stop>
            <stop stop-color="#705EDE" offset="100%"></stop>
        </linearGradient>
    </defs>
    <g id="Artboard-3" stroke="none" stroke-width="1" fill="none" fill-rule="evenodd" transform="translate(-1640.000000, -253.000000)">
        <g id="product2" transform="translate(1653.000000, 261.000000)" fill="url(#linearGradient-1)" fill-rule="nonzero">
            <path d="M35.1428571,85.8161765 L35.1428571,43.0289023 C35.1428571,39.807821 37.7717715,37.1966188 41,37.1966188 C44.2348108,37.1966188 46.8571429,39.8003886 46.8571429,43.0289023 L46.8571429,85.8079077 C46.8571429,89.0446779 49.479475,91.6470588 52.7142857,91.6470588 C55.9425142,91.6470588 58.5714286,89.0327818 58.5714286,85.8079077 L58.5714286,8.30454857 L46.0891366,1.20002276 C43.2774444,-0.400303471 38.721516,-0.399711673 35.9108634,1.20002276 L5.08913658,18.7427747 C2.27744436,20.3431009 0,24.2540904 0,27.4795357 L0,62.4709704 C0,65.7018701 2.27848397,69.607997 5.08913658,71.2077314 L10.7380952,74.4229401 L10.7380952,74.1451317 L11.7142857,74.1451317 L11.7142857,58.5855015 C11.7142857,55.3647899 14.3432001,52.7538873 17.5714286,52.7538873 C20.8062393,52.7538873 23.4285714,55.3641332 23.4285714,58.5855015 L23.4285714,85.8161765 C23.4285714,89.0331697 26.0509035,91.6470588 29.2857143,91.6470588 C32.5139428,91.6470588 35.1428571,89.0364838 35.1428571,85.8161765 Z M70.2857143,74.9785567 L76.9108634,71.2077314 C79.7225556,69.6074052 82,65.6964157 82,62.4709704 L82,27.4795357 C82,24.248636 79.721516,20.3425091 76.9108634,18.7427747 L70.2857143,14.9719494 L70.2857143,74.9785567 Z" id="Combined-Shape"></path>
        </g>
    </g>
</svg>