<?xml version="1.0" encoding="UTF-8"?>
<svg width="108px" height="108px" viewBox="0 0 108 108" version="1.1" xmlns="http://www.w3.org/2000/svg" xmlns:xlink="http://www.w3.org/1999/xlink">
    <!-- Generator: Sketch 48.1 (47250) - http://www.bohemiancoding.com/sketch -->
    <title>product1</title>
    <desc>Created with Sketch.</desc>
    <defs>
        <linearGradient x1="50%" y1="2.14046556%" x2="50%" y2="97.3592953%" id="linearGradient-1">
            <stop stop-color="#80D3FF" offset="0%"></stop>
            <stop stop-color="#026AD7" offset="100%"></stop>
        </linearGradient>
        <linearGradient x1="-13.6287302%" y1="65.8730139%" x2="118.476608%" y2="2.25620461%" id="linearGradient-2">
            <stop stop-color="#9BD7FF" offset="0%"></stop>
            <stop stop-color="#E2F3FF" offset="100%"></stop>
        </linearGradient>
    </defs>
    <g id="Artboard-3" stroke="none" stroke-width="1" fill="none" fill-rule="evenodd" transform="translate(-1364.000000, -253.000000)">
        <g id="product1" transform="translate(1372.000000, 261.000000)" fill-rule="nonzero">
            <path d="M46,0 C20.5949015,0 0,20.5949015 0,46 C0,71.4050984 20.5949015,92 46,92 C71.4050984,92 92,71.4050984 92,46 L67.0833334,46 C67.0833334,57.6440035 57.6440035,67.0833334 46,67.0833334 C34.3559965,67.0833334 24.9166666,57.6440035 24.9166666,46 C24.9166666,34.3559965 34.3559965,24.9166666 46,24.9166666 L46,0 Z" id="Combined-Shape" fill="url(#linearGradient-1)"></path>
            <path d="M60.6684927,38.171517 C56.8340419,39.1352687 53.4043615,47 53.4043615,47 L53.0242779,31.3641532 C53.0242779,31.3641532 53.0798306,31.3939085 53.1823172,31.4494563 C53.0628156,30.8835515 53,30.2967644 53,29.6950467 L53,8.53111888 C53,3.81951202 56.8820505,0 61.655364,0 L83.344636,0 C88.1248614,0 92,3.80502322 92,8.53111888 L92,29.6950467 C92,34.4066536 88.1179495,38.2261656 83.344636,38.2261656 L61.655364,38.2261656 C61.3216592,38.2261656 60.9923653,38.2076224 60.6684927,38.171517 Z M60.8,22.9356994 C62.9539104,22.9356994 64.7,21.2242556 64.7,19.1130828 C64.7,17.00191 62.9539104,15.2904662 60.8,15.2904662 C58.6460896,15.2904662 56.9,17.00191 56.9,19.1130828 C56.9,21.2242556 58.6460896,22.9356994 60.8,22.9356994 Z M72.5,22.9356994 C74.6539104,22.9356994 76.4,21.2242556 76.4,19.1130828 C76.4,17.00191 74.6539104,15.2904662 72.5,15.2904662 C70.3460896,15.2904662 68.6,17.00191 68.6,19.1130828 C68.6,21.2242556 70.3460896,22.9356994 72.5,22.9356994 Z M84.2,22.9356994 C86.3539104,22.9356994 88.1,21.2242556 88.1,19.1130828 C88.1,17.00191 86.3539104,15.2904662 84.2,15.2904662 C82.0460896,15.2904662 80.3,17.00191 80.3,19.1130828 C80.3,21.2242556 82.0460896,22.9356994 84.2,22.9356994 Z" id="Combined-Shape" fill="url(#linearGradient-2)"></path>
        </g>
    </g>
</svg>