<?xml version="1.0" encoding="UTF-8"?>
<svg width="108px" height="108px" viewBox="0 0 108 108" version="1.1" xmlns="http://www.w3.org/2000/svg" xmlns:xlink="http://www.w3.org/1999/xlink">
    <!-- Generator: Sketch 48.1 (47250) - http://www.bohemiancoding.com/sketch -->
    <title>rule</title>
    <desc>Created with Sketch.</desc>
    <defs>
        <linearGradient x1="94.2335841%" y1="100%" x2="0%" y2="0%" id="linearGradient-1">
            <stop stop-color="#47C9E5" offset="0%"></stop>
            <stop stop-color="#C7E031" offset="100%"></stop>
        </linearGradient>
    </defs>
    <g id="Artboard-3" stroke="none" stroke-width="1" fill="none" fill-rule="evenodd" transform="translate(-950.000000, -253.000000)">
        <path d="M1043.81623,288.837743 L1025.53703,307.161944 L1003.26977,329.484007 L992.136104,340.645204 C982.270085,350.535335 963.784005,346.641666 963.784005,346.641666 C963.784005,346.641666 959.972036,328.243883 969.868685,318.322975 L981.002519,307.161944 L1003.26977,284.839631 L1021.55337,266.511117 C1022.08309,265.796111 1022.97499,265.216242 1024.38916,265.216242 C1026.84449,265.164228 1030.1115,265.094793 1032.37585,265.046512 C1033.97223,265.046512 1035.86034,265.810877 1036.62665,266.578727 C1038.49547,268.445093 1041.58806,271.533664 1043.54032,273.483568 C1044.40225,274.347316 1045.26749,275.590592 1045.26749,278.104355 C1045.26749,284.087461 1045.76452,287.554067 1043.81623,288.837743 Z M1012.04226,334.119379 L1018.83677,327.308223 C1019.25386,326.890252 1019.92971,326.890252 1020.3467,327.308223 L1021.85664,328.821847 C1022.27343,329.239817 1022.27343,329.9175 1021.85664,330.335471 L1015.06213,337.146627 L1021.10167,343.201427 L1027.89618,336.390068 C1028.31327,335.971895 1028.98912,335.971895 1029.40612,336.390068 L1030.91585,337.903388 C1031.33294,338.321561 1031.33294,338.999244 1030.91585,339.417215 L1024.12134,346.228574 L1027.63041,349.746089 C1029.29837,351.41797 1032.00229,351.41797 1033.66995,349.746089 L1045.74903,337.637198 C1047.41699,335.965316 1047.41699,333.254482 1045.74903,331.5826 L1026.12057,311.905488 L1008.00165,330.068774 L1012.04226,334.119379 Z M967.964108,335.451517 C971.738163,338.997181 973.333133,340.37941 975.809572,342.661722 C978.882128,342.563004 983.973914,341.386674 985.950761,339.40508 L971.105787,324.523594 C969.028443,326.606063 967.927353,332.221753 967.964108,335.451517 Z M979.530006,264.264143 C977.848435,262.578619 975.121917,262.578619 973.440448,264.264143 L961.261026,276.473419 C959.579658,278.159147 959.579658,280.892431 961.261026,282.578159 L964.807609,286.133484 L971.658387,279.265715 C972.078933,278.844283 972.760384,278.844283 973.180828,279.265715 L974.703268,280.791568 C975.123508,281.213205 975.123508,281.8965 974.703268,282.317932 L967.85249,289.185701 L973.942048,295.290441 L980.792826,288.422672 C981.213372,288.001036 981.894823,288.001036 982.315267,288.422672 L983.837504,289.948832 C984.258253,290.370264 984.258253,291.05356 983.837504,291.474991 L976.986929,298.34276 L981.052345,302.418233 L999.321529,284.104421 L979.530006,264.264143 Z M1035.26455,274.979863 C1033.25583,272.966912 1030.8135,272.151113 1029.80902,273.157464 C1028.80453,274.164064 1029.61887,276.61171 1031.62758,278.624661 C1033.63614,280.637612 1036.07888,281.453411 1037.08312,280.446894 C1038.0876,279.440708 1037.27327,276.992814 1035.26455,274.979863 Z" id="Shape" fill="url(#linearGradient-1)" fill-rule="nonzero"></path>
    </g>
</svg>