<?xml version="1.0" standalone="no"?><!DOCTYPE svg PUBLIC "-//W3C//DTD SVG 1.1//EN" "http://www.w3.org/Graphics/SVG/1.1/DTD/svg11.dtd"><svg t="1531708562578" class="icon" style="" viewBox="0 0 1024 1024" version="1.1" xmlns="http://www.w3.org/2000/svg" p-id="1941" xmlns:xlink="http://www.w3.org/1999/xlink" width="32" height="32"><defs><style type="text/css"></style></defs><path d="M409.6 750.933l34.133 68.267H170.667v136.533h682.666V819.2H580.267l34.133-68.267h238.933A68.267 68.267 0 0 1 921.6 819.2v136.533A68.267 68.267 0 0 1 853.333 1024H170.667a68.267 68.267 0 0 1-68.267-68.267V819.2a68.267 68.267 0 0 1 68.267-68.267H409.6zM273.067 68.267h477.866a68.267 68.267 0 0 1 68.267 68.266V614.4a68.267 68.267 0 0 1-68.267 68.267H273.067A68.267 68.267 0 0 1 204.8 614.4V136.533a68.267 68.267 0 0 1 68.267-68.266z m0 68.266V614.4h477.866V136.533H273.067z m614.4 102.4a34.133 34.133 0 0 1 34.133 34.134v204.8a34.133 34.133 0 1 1-68.267 0v-204.8a34.133 34.133 0 0 1 34.134-34.134z m-750.934 0a34.133 34.133 0 0 1 34.134 34.134v204.8a34.133 34.133 0 0 1-68.267 0v-204.8a34.133 34.133 0 0 1 34.133-34.134zM989.867 307.2A34.133 34.133 0 0 1 1024 341.333V409.6a34.133 34.133 0 1 1-68.267 0v-68.267a34.133 34.133 0 0 1 34.134-34.133z m-955.734 0a34.133 34.133 0 0 1 34.134 34.133V409.6A34.133 34.133 0 0 1 0 409.6v-68.267A34.133 34.133 0 0 1 34.133 307.2z m341.334 102.4a51.2 51.2 0 1 0 0-102.4 51.2 51.2 0 0 0 0 102.4z m273.066 0a51.2 51.2 0 1 0 0-102.4 51.2 51.2 0 0 0 0 102.4zM512 0a34.133 34.133 0 0 1 34.133 34.133V102.4a34.133 34.133 0 0 1-68.266 0V34.133A34.133 34.133 0 0 1 512 0z m-68.267 614.4a34.133 34.133 0 0 1 34.134 34.133v136.534a34.133 34.133 0 1 1-68.267 0V648.533a34.133 34.133 0 0 1 34.133-34.133z m136.534 0a34.133 34.133 0 0 1 34.133 34.133v136.534a34.133 34.133 0 1 1-68.267 0V648.533a34.133 34.133 0 0 1 34.134-34.133z" p-id="1942" fill="#28c411"></path></svg>